# xmcd
#
# Track frame offsets:
#	150
#	10143
#	49912
#	81784
#	109565
#	137261
#	166658
#	190019
#	205772
#	275681
#	296368
#	322511
#	325353
#	344300
#
# Disc length: 4796 seconds
#
# Revision: 1
# Processed by: cddbd v1.5.2PL0 Copyright (c) Steve Scherf et al.
# Submitted via: audiograbber 1.83.01
#
DISCID=b412ba0e
DTITLE=Grateful Dead - 71-02-19M Capitol Theatre, Port Chester NY
DYEAR=1900
DGENRE=
TTITLE0=Merry-Go-Round Broke Down Tuning
TTITLE1=Truckin'
TTITLE2=Loser
TTITLE3=Cumberland Blues
TTITLE4=It Hurts Me Too
TTITLE5=Bertha
TTITLE6=Playing In The Band
TTITLE7=Dark Hollow
TTITLE8=Smokestack Lightning
TTITLE9=China Cat Sunflower
TTITLE10=I Know You Rider
TTITLE11=Tuning
TTITLE12=Greatest Story Ever Told
TTITLE13=Johnny B Goode
EXTD=
EXTT0=
EXTT1=
EXTT2=
EXTT3=
EXTT4=
EXTT5=
EXTT6=
EXTT7=
EXTT8=
EXTT9=
EXTT10=
EXTT11=
EXTT12=
EXTT13=
PLAYORDER=
